<?xml version="1.0" standalone="no"?>
<!DOCTYPE svg PUBLIC "-//W3C//DTD SVG 20010904//EN"
 "http://www.w3.org/TR/2001/REC-SVG-20010904/DTD/svg10.dtd">
<svg version="1.0" xmlns="http://www.w3.org/2000/svg"
 width="320.000000pt" height="360.000000pt" viewBox="0 0 320.000000 360.000000"
 preserveAspectRatio="xMidYMid meet">
<metadata>
Created by potrace 1.16, written by Peter Selinger 2001-2019
</metadata>
<g transform="translate(0.000000,360.000000) scale(0.100000,-0.100000)"
fill="#000000" stroke="none">
<path d="M1265 3578 c-27 -5 -52 -13 -55 -18 -3 -5 -15 -11 -25 -13 -11 -2
-51 -19 -90 -37 -38 -19 -73 -33 -77 -32 -5 1 -8 -3 -8 -9 0 -5 -5 -7 -10 -4
-6 4 -9 2 -8 -3 2 -5 -15 -24 -37 -43 -66 -57 -100 -91 -137 -141 -20 -26 -39
-44 -42 -41 -3 4 -6 -1 -6 -9 0 -9 -7 -18 -15 -22 -8 -3 -15 -12 -15 -21 0 -8
-3 -15 -7 -15 -9 0 -10 -19 -14 -255 -2 -148 0 -168 25 -260 15 -55 32 -110
38 -122 6 -12 8 -29 4 -38 -3 -9 -2 -14 3 -11 9 6 38 -73 33 -89 -2 -5 0 -7 4
-2 9 8 34 -46 34 -73 0 -10 7 -23 15 -30 16 -13 21 -55 6 -45 -11 6 -41 -22
-41 -39 0 -7 9 -39 20 -72 23 -68 23 -74 10 -74 -5 0 -10 8 -10 18 0 10 -16
32 -35 49 -19 17 -35 36 -35 42 0 7 -16 27 -35 47 -19 19 -35 38 -35 42 0 5
-16 23 -35 42 -19 19 -35 40 -35 47 0 7 -4 13 -8 13 -5 0 -15 11 -22 25 -7 14
-19 25 -27 25 -7 0 -13 6 -13 14 0 8 -13 28 -30 46 -16 18 -30 37 -30 42 0 6
-17 26 -37 45 -20 19 -37 45 -38 56 -1 12 -6 22 -11 22 -8 0 -62 56 -81 84 -2
2 -11 -3 -21 -12 -10 -10 -23 -17 -29 -17 -6 0 -16 -7 -23 -15 -7 -8 -17 -12
-23 -8 -5 3 -7 1 -4 -4 8 -12 -26 -46 -36 -37 -4 4 -9 -1 -13 -10 -3 -9 -10
-14 -14 -11 -9 6 -7 -11 5 -38 8 -18 14 -26 80 -102 20 -23 33 -46 30 -55 -4
-8 -3 -11 1 -7 4 4 16 0 26 -10 20 -18 25 -38 6 -27 -7 4 -8 3 -4 -5 4 -6 11
-9 16 -6 5 3 46 -42 92 -100 84 -107 102 -135 78 -120 -9 5 -11 4 -6 -4 4 -6
11 -9 16 -6 12 7 73 -72 65 -85 -4 -6 -2 -9 4 -8 15 4 72 -65 66 -80 -3 -7 -1
-11 4 -7 11 6 107 -123 103 -139 -2 -6 -1 -8 3 -4 10 10 58 -49 50 -62 -4 -6
-1 -9 6 -8 6 2 14 -3 17 -11 3 -9 0 -11 -7 -6 -7 4 -19 -1 -27 -11 -10 -13
-13 -14 -12 -4 3 13 -2 16 -38 19 -9 1 -12 6 -8 14 6 9 5 9 -7 0 -9 -8 -69
-12 -172 -14 -86 -1 -157 -5 -157 -8 0 -5 -55 -22 -115 -35 -25 -5 -125 -59
-125 -67 0 -5 -6 -9 -14 -9 -8 0 -36 -21 -62 -47 -26 -27 -52 -47 -57 -45 -4
1 -6 -2 -3 -6 3 -5 -4 -20 -17 -34 l-22 -24 0 -717 0 -717 1578 0 1577 0 0
704 c-1 387 0 708 1 712 1 5 1 23 0 40 -1 29 -4 32 -43 39 -63 10 -83 11 -83
3 0 -4 -10 -15 -23 -23 -12 -9 -19 -21 -16 -27 4 -7 2 -8 -5 -4 -6 4 -9 12 -6
17 4 5 1 9 -4 9 -6 0 -11 -8 -11 -17 -1 -16 -2 -16 -11 1 -13 21 5 39 33 32
11 -2 16 2 15 15 -1 13 -5 15 -13 8 -8 -7 -15 -6 -20 2 -5 8 -3 10 7 4 9 -5
11 -5 4 2 -13 14 -96 33 -108 26 -6 -3 -7 -1 -3 5 4 7 2 12 -3 12 -6 0 -11 -4
-11 -9 0 -5 -8 -12 -17 -16 -15 -5 -16 -4 -5 6 19 20 14 32 -9 26 -27 -7 -79
2 -79 14 0 5 12 4 26 -2 15 -5 29 -7 32 -5 3 3 -4 9 -14 12 -10 4 -25 12 -32
18 -8 5 -23 11 -34 13 -27 4 -58 22 -58 33 0 6 -9 10 -21 10 -11 0 -17 4 -14
10 3 5 0 7 -8 4 -8 -3 -18 -1 -21 5 -4 6 -13 8 -21 4 -11 -4 -13 -1 -8 13 4
12 3 15 -5 10 -7 -4 -12 -3 -12 3 0 5 -8 12 -19 16 -15 5 -17 12 -11 45 4 24
3 43 -4 51 -8 9 -8 10 2 5 15 -9 27 21 36 89 4 28 9 59 12 70 10 41 27 100 32
115 8 22 8 21 16 78 4 28 11 52 15 52 4 0 8 12 9 26 1 14 9 52 18 83 19 68 54
207 60 241 3 13 10 27 15 31 6 3 10 8 8 10 -4 6 22 130 31 148 8 16 31 94 36
121 4 26 12 54 28 98 8 23 13 42 11 42 -2 0 0 14 5 30 8 27 6 32 -13 40 -12 5
-36 14 -54 21 -17 7 -30 16 -27 20 2 4 -4 5 -15 2 -10 -2 -35 0 -55 5 -23 7
-36 7 -36 1 0 -6 -3 -8 -7 -6 -5 3 -9 -7 -9 -21 -2 -40 -42 -190 -56 -208 -5
-6 -6 -19 -2 -28 3 -9 1 -16 -4 -16 -6 0 -14 -25 -17 -55 -4 -30 -11 -55 -15
-55 -5 0 -11 -19 -15 -42 -4 -24 -12 -63 -19 -88 -7 -25 -11 -51 -9 -57 3 -7
0 -13 -6 -13 -10 0 -28 -75 -23 -94 2 -5 -1 -12 -7 -15 -9 -6 -16 -30 -25 -81
-1 -8 -5 -22 -9 -30 -3 -8 -11 -42 -18 -74 -13 -66 -28 -106 -40 -106 -5 0 -9
10 -9 23 0 12 -1 32 -1 44 0 13 -5 25 -10 28 -5 4 -7 11 -4 16 4 5 3 15 -2 22
-8 13 -10 22 -18 82 -12 98 -24 137 -37 129 -6 -4 -5 3 2 16 7 12 8 20 2 16
-11 -6 -35 44 -31 65 2 8 -5 31 -14 52 -9 21 -16 41 -15 45 3 14 -63 232 -93
304 -10 26 -20 58 -21 72 -1 13 -5 23 -8 21 -8 -5 -40 60 -40 80 0 8 -5 15
-10 15 -6 0 -14 8 -18 18 -17 41 -86 135 -134 183 -29 28 -52 56 -50 61 1 5
-1 7 -6 4 -13 -8 -83 54 -76 66 5 7 2 8 -5 3 -8 -4 -18 1 -26 13 -11 14 -31
21 -82 27 -108 11 -353 14 -408 3z m-230 -743 c39 -11 68 -26 82 -43 26 -32
31 -54 6 -25 -10 11 -24 18 -32 15 -8 -3 -11 0 -7 6 4 7 -1 9 -14 7 -13 -2
-20 1 -20 11 0 9 -11 14 -30 14 -16 0 -33 1 -36 3 -16 6 -28 -32 -17 -55 7
-13 15 -33 18 -45 4 -13 11 -23 16 -23 6 0 8 4 4 9 -3 6 3 15 12 21 16 10 16
11 -4 7 -14 -3 -23 0 -23 7 0 14 35 15 47 2 5 -4 0 -14 -10 -21 -18 -13 -18
-14 0 -23 10 -5 25 -7 33 -5 13 4 13 3 0 -6 -12 -9 -10 -11 12 -11 15 0 29 -4
32 -9 4 -5 -9 -6 -29 -1 -33 7 -39 5 -36 -13 1 -4 -6 -10 -14 -13 -8 -3 -12
-10 -9 -15 3 -5 -3 -6 -13 -2 -17 6 -17 5 -2 -13 13 -15 14 -23 4 -42 -11 -20
-14 -21 -25 -7 -7 8 -9 15 -5 15 4 0 2 6 -4 14 -7 9 -8 17 -3 20 6 3 8 23 6
43 -3 35 -2 36 11 19 8 -10 12 -23 9 -27 -7 -12 7 -11 26 1 9 6 10 10 3 10 -6
0 -20 13 -29 29 -9 16 -23 27 -30 24 -6 -2 -15 0 -18 6 -4 6 -14 7 -24 4 -15
-6 -15 -5 -3 10 12 15 12 17 -3 11 -9 -3 -16 -1 -16 6 0 6 3 9 8 6 11 -7 38
17 44 40 6 25 -9 57 -23 49 -5 -4 -9 -1 -9 6 0 13 24 10 115 -16z m858 -252
c10 -6 9 -38 -4 -65 -19 -42 -59 -63 -119 -63 -51 0 -55 2 -59 25 -5 38 27 87
68 104 32 13 89 13 114 -1z m-610 -224 c42 -11 61 -42 43 -71 -6 -10 -33 -27
-60 -39 -56 -24 -110 -18 -130 13 -17 27 4 71 44 90 41 21 52 22 103 7z"/>
</g>
</svg>
