<svg width="28" height="28" viewBox="0 0 28 28" fill="none" xmlns="http://www.w3.org/2000/svg">
<g clip-path="url(#clip0)">
<path d="M24.858 12.7975L13.9277 23.5713L2.99746 12.7957C2.31224 12.1157 1.19926 12.1157 0.514038 12.7957C-0.171183 13.4757 -0.171183 14.5766 0.514038 15.2549L12.6861 27.253C13.3452 27.9052 14.5087 27.9086 15.1713 27.253L27.3433 15.2531C28.0286 14.5748 28.0286 13.4723 27.3433 12.794C26.6562 12.1176 25.5433 12.1176 24.858 12.7975Z" fill="#0F8ED6"/>
<path d="M12.686 15.0809C13.345 15.733 14.5086 15.7365 15.1711 15.0809L27.3432 3.08274C28.0284 2.40272 28.0284 1.30188 27.3432 0.623599C26.658 -0.056418 25.545 -0.056418 24.8598 0.623599L13.9278 11.3975L2.99734 0.623599C2.31212 -0.056418 1.19914 -0.056418 0.513916 0.623599C-0.171305 1.30362 -0.171305 2.40445 0.513916 3.08274L12.686 15.0809Z" fill="#0F8ED6"/>
</g>
<defs>
<clipPath id="clip0">
<rect width="27.8571" height="27.8571" fill="white"/>
</clipPath>
</defs>
</svg>
