<svg width="17" height="17" viewBox="0 0 17 17" fill="none" xmlns="http://www.w3.org/2000/svg">
<path d="M16.5 15.5C16.5 16.0523 16.0523 16.5 15.5 16.5H1.5C0.947719 16.5 0.5 16.0523 0.5 15.5C0.5 14.9477 0.947719 14.5 1.5 14.5H15.5C16.0523 14.5 16.5 14.9477 16.5 15.5ZM7.79291 12.3321C7.98819 12.5274 8.24406 12.625 8.5 12.625C8.75587 12.625 9.01188 12.5274 9.20709 12.3321L12.7502 8.78909C13.1407 8.39856 13.1407 7.76541 12.7502 7.37488C12.3596 6.98434 11.7265 6.98434 11.3359 7.37488L9.5 9.21081V1.5C9.5 0.947719 9.05228 0.5 8.5 0.5C7.94772 0.5 7.5 0.947719 7.5 1.5V9.21081L5.66406 7.37488C5.27353 6.98434 4.64038 6.98434 4.24984 7.37488C3.85931 7.76541 3.85931 8.39856 4.24984 8.78909L7.79291 12.3321Z" fill="white"/>
</svg>
